# xmcd CD database file
#
# Track frame offsets:
#	150
#	14066
#	31865
#	53308
#	70381
#	94189
#	114411
#	128022
#	153623
#	178908
#	196624
#	211759
#
# Disc length: 2971 seconds
#
# Revision: 5
# Processed by: cddbd v1.5.2PL0 Copyright (c) Steve Scherf et al.
# Submitted via: CDex 2.17
#
DISCID=9a0b990c
DTITLE=Joe Galullo And The Blues Messenger - Have A Good Morning
DYEAR=2006
DGENRE=Blues
TTITLE0=Baby Boogie Boo
TTITLE1=You Are The Only One
TTITLE2=Burning Blues
TTITLE3=Pretty Funny Girl
TTITLE4=The Love In Vain Of Mary Brown
TTITLE5=Have A Good Morning
TTITLE6=Hey, Hey Lucy
TTITLE7=Stormy Monday
TTITLE8=Hungry For Your Love
TTITLE9=Long As I Can See The Light
TTITLE10=I Gotta Move
TTITLE11=Weeping Of A Child
EXTD=YEAR: 2006
EXTT0=
EXTT1=
EXTT2=
EXTT3=
EXTT4=
EXTT5=
EXTT6=
EXTT7=
EXTT8=
EXTT9=
EXTT10=
EXTT11=
PLAYORDER=
